<?xml version="1.0" encoding="UTF-8"?>
<!DOCTYPE svg PUBLIC "-//W3C//DTD SVG 1.1//EN" "http://www.w3.org/Graphics/SVG/1.1/DTD/svg11.dtd">
<!-- Creator: CorelDRAW Standard 2021 (64-Bit) -->
<svg xmlns="http://www.w3.org/2000/svg" xml:space="preserve" width="210mm" height="297mm" version="1.1" style="shape-rendering:geometricPrecision; text-rendering:geometricPrecision; image-rendering:optimizeQuality; fill-rule:evenodd; clip-rule:evenodd"
viewBox="0 0 21000 29700"
 xmlns:xlink="http://www.w3.org/1999/xlink"
 xmlns:xodm="http://www.corel.com/coreldraw/odm/2003">
 <defs>
  <style type="text/css">
   <![CDATA[
    .fil0 {fill:black;fill-rule:nonzero}
   ]]>
  </style>
 </defs>
 <g id="Layer_x0020_1">
  <metadata id="CorelCorpID_0Corel-Layer"/>
  <path class="fil0" d="M10634.96 10887.59c-65.57,-126.15 -193.01,-213.73 -337.09,-213.73 -114.78,0 -213.64,58.43 -286.03,142.18 -2,-170.01 -4.27,-340.04 -8.54,-509.99 -2.27,-93.53 -0.57,-190.28 -50.21,-273.47 -80.21,-134.01 -259.29,-174.83 -404.36,-148.97 -77.38,13.78 -155.46,53.51 -213.07,111.38 -27.02,-93.83 -88.04,-170.04 -188.31,-209.28 -127.58,-49.93 -294.85,-41.71 -408.92,37.24 -132.56,91.61 -132.56,235.18 -139.11,380.67 -3.27,75.24 -6.68,150.46 -10.09,225.69 -101.98,-83.13 -259.86,-92.76 -388.44,-65.62 -180.92,38.2 -247.35,191.3 -249.76,362.62 -2.42,169.61 -2.28,339.31 -3.84,508.93 -2.7,283.83 -5.26,567.71 -9.11,851.57 -67.27,-105.62 -203.39,-160.24 -330.4,-153.79 -79.09,4.01 -156.46,32.96 -206.67,96.27 -55.41,69.86 -47.29,155.3 -68.62,237.03 -46.78,179.14 -133.7,348.13 -213.07,514.52 -37.62,78.89 -76.58,158.16 -81.3,246.95 -4.54,85.12 19.93,170.24 40.52,252.12 98.46,391.58 206.98,792.39 426.87,1135.06 119.19,185.7 254.88,364.06 407.64,523.42 144.08,150.12 316.04,282.96 525.98,319.18 88.18,15.22 176.79,14.08 265.83,10.41 131.57,-4.48 264.55,8.5 395.98,14.81 208.8,10.03 417.88,17.27 626.96,12.93 170.68,-3.53 354.73,0.72 509.62,-80.89 119.33,-62.81 210.36,-169.07 271.8,-287.54 154.61,-298.06 141.53,-635.8 145.51,-961.2 5.97,-492 9.1,-984.06 12.23,-1476.08 2.7,-433.28 5.12,-866.57 7.11,-1299.87 0.43,-105.35 11.38,-205.55 -39.11,-302.55zm-2728.74 2415.75c0,0.24 0,0.51 0,0.74 0,0.04 0,0.12 0,0.17 -2.27,-8.62 -0.71,-2.79 0,-0.91zm2682.51 -2102.57c-1.85,405.13 -4.12,810.28 -6.68,1215.42 -2.99,474.83 -6.12,949.64 -11.24,1424.44 -3.13,281.87 15.93,578.67 -61.59,852.84 -34.13,120.32 -86.05,240.01 -170.39,333.89 -102.97,114.58 -235.11,162.35 -385.88,173.1 -366.53,26.12 -733.21,0.57 -1099.46,-15.1 -49.49,-2.12 -99.13,-4.4 -148.63,-2.72 -221.46,9.11 -409.35,-28.32 -587.28,-170.05 -154.75,-123.16 -284.18,-283.91 -401.24,-442.01 -116.06,-156.93 -228.56,-323.79 -303.38,-504.92 -79.35,-191.91 -138.69,-392.75 -194.59,-592.52 -23.08,-82.53 -45.24,-165.34 -65.65,-248.56 -21.14,-86.23 -42.6,-173.84 -17.91,-261.69 21.59,-76.85 63.35,-149.12 97.36,-221.12 37.35,-79.11 73.53,-158.77 106.99,-239.6 32.27,-78.09 64.55,-158.38 82.33,-241.26 19.06,-88.91 9.96,-183.58 109.24,-225.59 85.48,-36.18 201.26,-16.76 276.36,35.19 64.29,44.41 85.2,104.96 92.16,178.34 15.51,160.6 6.97,325.73 -7.53,486.07 -13.66,151.88 -80.65,306.75 -40.4,457.06 11.95,44.66 28.73,90.35 48.65,132.12 8.1,16.96 12.94,32.21 33.56,37.91 29.59,8.19 48.22,-13.16 55.62,-38.06 13.37,-45.05 8.67,-102.04 10.66,-148.34 21.48,-514.47 22.76,-1030.2 28.59,-1545.03 2.71,-238.58 5.12,-477.18 6.83,-715.77 0.43,-60.32 0.71,-120.66 1.14,-180.99 0.42,-73.38 6.25,-154.31 54.05,-214.03 58.45,-73.07 160.58,-84.21 247.91,-82.9 91.45,1.35 204.53,24.92 245.63,117.28 2.14,528.76 4.13,1057.52 6.26,1586.29 0.28,75.32 0.57,150.65 0.85,225.98 0.15,54.9 85.48,55.01 85.34,0 -2.13,-531.53 -4.12,-1063.07 -6.25,-1594.59 -0.29,-75.34 -0.57,-150.67 -0.86,-225.99 3.42,-76.91 6.97,-153.83 10.38,-230.73 4.98,-109.9 -15.36,-264.9 46.51,-360.65 68.7,-106.17 216.77,-128.55 332.4,-105.78 133.99,26.41 204.96,121.38 208.09,256.23 -2.13,696.72 -4.12,1393.42 -6.26,2090.13 -0.28,99.79 -0.57,199.59 -0.85,299.39 -0.14,54.91 85.19,55 85.34,0 1.99,-696.72 4.12,-1393.42 6.26,-2090.13 0.28,-96.18 0.57,-192.37 0.85,-288.55 66.56,-124.73 218.75,-171.08 352.17,-147.01 149.62,26.98 206.94,130.76 211.92,270.73 8.4,239.43 9.39,479.28 11.95,718.84 1.99,467.88 4.13,935.74 6.26,1403.61 0.28,65.5 0.57,131.01 0.85,196.51 0.29,54.9 85.63,55.01 85.34,0 -2.13,-467.87 -4.12,-935.73 -6.25,-1403.61 -0.29,-62.41 -0.57,-124.81 -0.86,-187.22 2.13,-4.52 4.55,-9.6 5.69,-11.62 10.67,-19.79 22.19,-39.16 35.27,-57.39 36.41,-50.31 84.06,-94.56 141.81,-118.87 148.35,-62.52 306.8,24.06 371.09,162.82 35.98,78 21.76,174.58 21.47,258.21z"/>
 </g>
</svg>
