<?xml version="1.0" encoding="UTF-8"?>
<!DOCTYPE svg PUBLIC "-//W3C//DTD SVG 1.1//EN" "http://www.w3.org/Graphics/SVG/1.1/DTD/svg11.dtd">
<!-- Creator: CorelDRAW Standard 2021 (64-Bit) -->
<svg xmlns="http://www.w3.org/2000/svg" xml:space="preserve" width="210mm" height="297mm" version="1.1" style="shape-rendering:geometricPrecision; text-rendering:geometricPrecision; image-rendering:optimizeQuality; fill-rule:evenodd; clip-rule:evenodd"
viewBox="0 0 21000 29700"
 xmlns:xlink="http://www.w3.org/1999/xlink"
 xmlns:xodm="http://www.corel.com/coreldraw/odm/2003">
 <defs>
  <style type="text/css">
   <![CDATA[
    .fil0 {fill:black;fill-rule:nonzero}
   ]]>
  </style>
 </defs>
 <g id="Layer_x0020_1">
  <metadata id="CorelCorpID_0Corel-Layer"/>
  <path class="fil0" d="M12114.27 12817.4c-66.04,-222.92 -356.31,-259.26 -539.36,-158.43 -12.31,6.77 -24.28,14.56 -35.68,23.15 -34.05,-138.42 -127.24,-263.02 -277.19,-283.36 -134,-18.17 -268.89,34.4 -346.85,134.83 -44.73,-140.13 -160.47,-244.61 -326.84,-244.93 -188.33,-0.35 -321.49,126.45 -352.64,294.61 -131.19,-109.97 -359.4,-112.05 -488.64,-3.91 -131.63,110.18 -113.87,290.37 -113.87,444.88 0,373.9 0,747.81 0,1121.73 0,94.11 0,188.23 0,282.34 -41.66,-7.63 -83.77,-18.8 -115.58,-41.06 -46.48,-32.57 -59.61,-95.84 -64.54,-148.8 -25.23,-270.98 105.08,-538.13 145.09,-801.79 17.95,-118.42 24.36,-235.59 -49.66,-336.68 -68.68,-93.81 -184.17,-167.97 -301.61,-177.56 -101.23,-8.26 -197.25,37.9 -245.75,128.35 -57.12,106.55 -46.54,234.62 -84.94,347.97 -42.02,124.05 -101.91,242.13 -164.03,357.13 -46.82,86.67 -116.07,176.51 -128.83,276.04 -12.89,100.62 40.42,197.11 71.03,290.67 38.4,117.41 75.41,235.27 115.99,351.97 102.02,293.35 220.06,586.21 395.37,844.25 153.65,226.17 342.89,430.72 556.72,601.2 86.18,68.72 170.11,124.78 280.4,146.92 124.92,25.08 252.49,18.97 378.91,13.38 251.1,-11.1 499.95,30.79 751.87,9.49 268.72,-22.71 525.51,-74.42 705.17,-290.61 122.37,-147.25 204.42,-335.35 234.69,-524.32 13.82,-86.38 10.71,-174.82 11.41,-262.03 2.86,-360.58 3.05,-721.19 3.61,-1081.78 0.04,-32.38 0.03,-64.75 0.07,-97.12 -0.01,-0.36 0.03,-0.71 0,-1.07 0.44,-317.29 0.71,-634.57 0.78,-951.85 0.02,-85.51 9.42,-180.82 -15.1,-263.61zm-418.35 -112.76c112.48,-25.66 264.68,-16.76 322.34,99.65 36.11,72.87 25.8,164.04 25.77,243.37 -0.04,308.65 -0.24,617.29 -0.64,925.93 -0.01,14.23 -0.04,28.45 -0.07,42.67 -79.02,77.32 -160.45,140.06 -278.25,137.8 -99.34,-1.91 -148.86,-56.75 -211.71,-121.47 2.79,-310.29 -0.02,-620.73 -0.02,-931.04 0,-103 0,-206.01 0,-309.01 5.14,-6.72 15.52,-22.94 19.96,-27.44 32.61,-33.08 78.23,-50.32 122.62,-60.46zm-716.87 -115.61c61.93,-89.65 185.03,-125.54 289.32,-102.98 129.88,28.08 193.92,170.8 199.63,293.31 0,216.92 0,433.86 0,650.78 0,148.05 0,296.08 0,444.13 0,129.66 19.57,271.5 -90.84,365.87 -78.34,66.96 -186.65,71.51 -284.24,53.69 -117.36,-21.43 -155.96,-107.36 -158.29,-220.15 -0.04,-2.37 0,-44.39 0,-63.62 0,-330.73 0,-661.47 0,-992.21 0,-104.98 0,-209.97 0,-314.95 0.67,-1.16 4.71,-24.45 6.9,-32.37 8.01,-28.97 20.39,-56.71 37.52,-81.5zm-390.7 -215.03c183.37,0.5 272.68,159.15 260.94,327.14 0,219.05 0,438.09 0,657.13 0,154.78 0,309.55 0,464.33 0,70.97 -3.15,285.49 -5.71,295.4 -36.63,142.09 -192.36,205.47 -325.95,174.08 -129.77,-30.49 -198.41,-130.5 -201.71,-261.07 -0.03,-1.6 -0.37,-2.98 -0.55,-4.51 0.25,-4.26 0.51,-8.52 0.55,-12.87 3.78,-305.41 0,-611.09 0,-916.52 0,-131.99 0,-263.98 0,-395.97 -16.14,-175.54 85.4,-327.65 272.43,-327.14zm-869.81 500.42c0.83,-119.94 40.34,-234.13 164.12,-272.83 121.74,-38.08 284.31,-9.02 347.92,110.26 0,237.13 0,474.26 0,711.4 0,142.45 0,284.88 0,427.34 0,108.51 25.39,237.29 -80.12,304.83 -79.17,50.7 -178.28,57.01 -267.23,31.61 -107.62,-30.75 -161.77,-112.08 -164.69,-222.39 -0.06,-2.08 -0.44,-3.93 -0.72,-5.85 -0.83,-361.47 -1.72,-722.96 0.72,-1084.37zm2244.58 2817.06c-81.33,199.58 -226.97,386.34 -439.23,453.25 -273.47,86.19 -576.37,74.64 -858.89,56.4 -91.81,-5.93 -182.11,-8.95 -274.04,-4.7 -120.51,5.56 -245.29,10.78 -363.02,-20.45 -100.56,-26.68 -179.27,-93.35 -257.27,-159.11 -92.19,-77.72 -179.26,-161.67 -260.61,-250.66 -205.15,-224.38 -361.54,-479.72 -481.15,-758.61 -100.67,-234.7 -176.59,-478.03 -256.36,-720.28 -30.1,-91.39 -88.11,-188.7 -54.63,-285.68 31.38,-90.81 95.16,-176.85 139.42,-262.06 53.36,-102.75 103.96,-208.31 141.16,-318.13 36.1,-106.62 23.23,-237.1 80.14,-334.25 66.35,-113.29 208.04,-88.14 303.15,-27.3 122.81,78.56 154.27,186.43 138.08,324.5 -29.85,254.59 -137.84,494.1 -152.74,751.24 -5.3,91.36 -1.11,197.99 54.81,275.01 61.95,85.28 183.43,99.47 279.89,114.57 157.54,24.63 306.22,52.85 442.53,141.45 108.11,70.26 204.27,159.1 295.02,250.23 45.02,45.21 89.22,91.54 130.84,139.91 35.87,41.7 96,-18.87 60.35,-60.33 -136.59,-158.76 -295.12,-316.56 -475.94,-423.96 -135.67,-80.57 -283.46,-105.45 -436.12,-130.44 -0.01,-86.55 -0.17,-173.08 -0.33,-259.63 57.57,60.1 140.69,95.81 239.03,103.22 113.16,8.53 233.4,-32.49 301.96,-115.57 60.02,146.36 207.93,236.04 383.27,213.31 95.3,-12.36 183.95,-67.73 238.39,-146.79 15.98,35.33 39.31,66.98 73.14,91.7 65.56,47.88 149.12,56.21 227.92,57.99 170.79,3.86 311.26,-96.06 356.25,-249.21 63.18,59.06 126,100.36 226.93,102.3 111.41,2.13 198.96,-43 278.06,-108.17 -0.41,304.83 -0.95,609.68 -2.51,914.51 -1.15,224.16 8.99,433.45 -77.5,645.74z"/>
 </g>
</svg>
