<?xml version="1.0" encoding="UTF-8"?>
<!DOCTYPE svg PUBLIC "-//W3C//DTD SVG 1.1//EN" "http://www.w3.org/Graphics/SVG/1.1/DTD/svg11.dtd">
<!-- Creator: CorelDRAW Standard 2021 (64-Bit) -->
<svg xmlns="http://www.w3.org/2000/svg" xml:space="preserve" width="210mm" height="297mm" version="1.1" style="shape-rendering:geometricPrecision; text-rendering:geometricPrecision; image-rendering:optimizeQuality; fill-rule:evenodd; clip-rule:evenodd"
viewBox="0 0 21000 29700"
 xmlns:xlink="http://www.w3.org/1999/xlink"
 xmlns:xodm="http://www.corel.com/coreldraw/odm/2003">
 <defs>
  <style type="text/css">
   <![CDATA[
    .fil0 {fill:black;fill-rule:nonzero}
   ]]>
  </style>
 </defs>
 <g id="Layer_x0020_1">
  <metadata id="CorelCorpID_0Corel-Layer"/>
  <path class="fil0" d="M9140.52 8631.51c-80.15,-163.54 -273.37,-211.66 -438.85,-168.85 -44.78,11.6 -90.09,29.54 -128.39,56.41 -7.84,-71.38 -26.77,-140.49 -66.83,-203.26 -102.62,-160.71 -374.25,-226.25 -531.12,-104.69 77.41,-563.93 152.04,-1128.37 223.45,-1693.07 15.31,-121.06 40.21,-247.86 -41.43,-353.3 -125.88,-162.57 -405.32,-117.85 -497.14,57.37 -41.24,78.68 -52.92,175.74 -70.95,261.89 -27.81,132.83 -54.95,265.8 -82.03,398.79 -110.7,543.56 -219.59,1087.48 -328.19,1631.48 -67.88,-261.77 -135.87,-523.49 -204.3,-785.1 -112.63,-430.59 -221.53,-862.7 -344.07,-1290.62 -26.94,-94.06 -58.65,-194.66 -141.62,-254.44 -80.2,-57.77 -172.28,-46.37 -262.74,-25.41 -214.57,49.71 -190.15,267.77 -159.2,443.92 75.09,427.39 158.82,853.38 240.2,1279.61 45.59,238.78 91.35,477.53 137.22,716.26 24.49,127.49 36.76,267.05 74.87,391.57 -95.38,103.65 -163.56,236.55 -240.09,353.55 -43.71,66.81 -88.17,133.09 -132.33,199.58 -38.21,57.53 -52.37,112.03 -68.76,177.84 -19.6,78.77 -17.68,148.11 -6.48,229.23 26.04,188.68 65.06,378.1 111.33,562.87 47.71,190.45 114.5,374.53 193,554.36 80.16,183.64 172.5,348.63 329.95,477.12 173.82,141.85 399.73,245.35 626.27,255.76 261.99,12.05 525.46,12.23 787.65,8.5 100.8,-1.44 206.01,1.6 305.76,-15.79 172.93,-30.15 343.89,-142.11 455.47,-275.02 108.94,-129.76 153.95,-305.73 186.47,-468.58 24.01,-120.28 37.32,-240.6 37.92,-363.12 1.38,-287.36 -3.78,-574.89 5.8,-862.16 3.32,-99.05 15.01,-194.02 27.11,-291.97 19.87,-160.94 25.23,-324.15 29.88,-486.11 3.66,-127.91 30.36,-295.89 -27.83,-414.62zm-288.93 -99.56c83.09,6.02 165.1,53.63 206.73,126.41 33.76,59.01 28.41,127.95 28.12,193.55 -0.28,67.73 -1.69,135.46 -3.68,203.17 -4.44,150.2 -10.02,301.15 -26.54,450.58 -1.74,15.8 -3.67,31.51 -5.65,47.19 -0.44,1.45 -1.04,2.74 -1.36,4.32 -33.74,161.14 -146.99,215.37 -302.35,205.67 -99.66,-6.22 -213.67,-109.65 -233.1,-216.39 3.51,-53.45 6.13,-106.58 10.55,-157.48 17.41,-200.08 32.72,-400.37 45.63,-600.79 3.24,-50.42 7.07,-102.28 7.93,-154.07 1.42,-1.68 2.85,-3.31 4.1,-5.3 49.85,-79.48 184.65,-103.02 269.62,-96.86zm-776.71 -278.61c111.29,-40.64 266.29,-11.26 342.03,82.98 103.04,128.19 76.8,311.73 66.88,464.2 -12.6,193.65 -27.38,387.19 -44.12,580.53 -3.16,36.4 -20.94,224.64 -24.89,260.81 -5.55,50.59 -5.76,110.8 -26.53,158.3 -57.72,131.97 -233.74,174.65 -354.78,116.39 -99.72,-48 -170.98,-132 -164.74,-244.98 8.16,-147.75 16.45,-295.49 25.03,-443.21 15.47,-265.76 22.58,-548.43 53.9,-808.65 18.51,-71.76 51.81,-138.82 127.22,-166.37zm-521.44 -1170.25c49.51,-244.21 93.84,-490.55 151.77,-732.95 22.41,-93.82 71.5,-171.73 171.14,-193.1 140.36,-30.09 260.05,52.33 255.3,201.75 -3.03,94.95 -22.23,191.42 -34.37,285.46 -46.87,363.69 -95.21,727.2 -143.65,1090.7 -29.53,221.59 -107.88,877.97 -112.45,940.18 -118.45,-178.35 -393.74,-69.62 -571.59,-2.4 -12.77,4.83 -25.53,9.73 -38.3,14.56 106.64,-534.88 213.79,-1069.67 322.15,-1604.2zm-1334.83 -126.1c-26.89,-143.74 -55.83,-287.43 -78.63,-431.89 -14.51,-91.87 -35.8,-241.57 77.66,-276.81 76.25,-23.7 170.32,-42.18 235.43,15.91 65.19,58.13 83.71,155.4 106.55,236.82 22.45,79.98 44.13,160.17 65.76,240.37 60.99,226.38 120.78,453.07 180.38,679.83 107.07,407.33 213.23,814.91 318.89,1222.6 6.22,24 12.44,47.99 18.64,71.98 0.41,1.53 1.02,2.92 1.58,4.35 -101.87,38.74 -203.65,77.76 -304.96,117.92 -78.77,31.22 -165.18,59.34 -242.6,98.61 -2.81,-12.13 -5.73,-24.18 -7.98,-35.87 -32.57,-169.13 -65.08,-338.26 -97.54,-507.38 -91.84,-478.67 -183.59,-957.36 -273.18,-1436.44zm2688.18 4349.37c-67.53,170.07 -211.57,295.13 -378.41,365.93 -94.15,39.96 -184.78,45.35 -285.32,48.55 -254.48,8.11 -509.71,4.67 -764.2,-1.27 -185.02,-4.31 -346.27,-25.23 -515.59,-109.88 -139.25,-69.61 -265.65,-167.47 -358.77,-293.07 -116.22,-156.72 -187.05,-354.21 -251.89,-536.73 -55.15,-155.25 -95.96,-314.49 -129.4,-475.7 -31.87,-153.71 -76.85,-316.33 -77.27,-474.26 -0.16,-60.19 20.08,-146.34 46.07,-197.2 67.13,-131.41 166.57,-253.39 246.4,-377.54 39.91,-62.06 76.11,-128 123.7,-184.54 10.47,-12.41 21.01,-22.38 29.3,-33.08 69.98,-43.1 153.24,-70.04 228.97,-100.39 125.33,-50.22 251.44,-98.51 377.67,-146.47 86.83,-32.98 173.48,-66.66 260.7,-98.65 73.36,-26.92 158.43,-46.36 235.77,-24.64 74.39,20.88 98.9,85.95 111.41,155.5 27.34,152.05 -20.15,282.51 -147.22,369.26 -118.75,81.04 -243.4,153.79 -367.67,225.93 -92.6,53.75 -186.1,105.74 -279.84,157.43 -120.55,66.43 -187.33,167.77 -114.25,300.57 125.01,227.14 332.87,400.92 468.73,620.68 28.83,46.63 102.68,3.82 73.69,-43.07 -128.36,-207.66 -310.78,-379.84 -445.58,-583.72 -38.27,-57.86 -69.1,-122.05 -6.6,-177.68 38.47,-34.25 91.1,-55.78 136.03,-80.69 125.73,-69.69 250.31,-141.57 373.36,-215.89 102.88,-62.14 235.28,-125.29 313.82,-220.02 -6.06,112.35 -11.9,224.67 -18.18,336.88 -3.17,56.71 -7.04,113.43 -9.44,170.17 -4.25,100.01 42,184.27 117.77,248.36 91.04,76.99 212.64,120.37 330.59,89.14 104.27,-27.63 216.02,-108.2 246.09,-216.39 8.74,-31.44 15.28,-63.98 20.4,-97.12 60.05,76.46 149.06,133.13 234.24,140.38 117.65,10.03 222.14,-15.28 296.38,-80.46 -11.93,264.65 -8.25,530.12 -7.95,794.96 0.29,253.9 -18.5,505.47 -113.51,744.72z"/>
 </g>
</svg>
